<svg width="25" height="25" viewBox="0 0 25 25" fill="none" xmlns="http://www.w3.org/2000/svg">
<g clip-path="url(#clip0_2344_2712)">
<path d="M23.8545 19.948C23.8545 20.4784 23.6438 20.9871 23.2687 21.3622C22.8936 21.7373 22.3849 21.948 21.8545 21.948H3.85449C3.32406 21.948 2.81535 21.7373 2.44028 21.3622C2.06521 20.9871 1.85449 20.4784 1.85449 19.948V8.948C1.85449 8.41757 2.06521 7.90886 2.44028 7.53378C2.81535 7.15871 3.32406 6.948 3.85449 6.948H7.85449L9.85449 3.948H15.8545L17.8545 6.948H21.8545C22.3849 6.948 22.8936 7.15871 23.2687 7.53378C23.6438 7.90886 23.8545 8.41757 23.8545 8.948V19.948Z" stroke="black" stroke-width="2" stroke-linecap="round" stroke-linejoin="round"/>
<path d="M12.8545 17.948C15.0636 17.948 16.8545 16.1571 16.8545 13.948C16.8545 11.7389 15.0636 9.948 12.8545 9.948C10.6454 9.948 8.85449 11.7389 8.85449 13.948C8.85449 16.1571 10.6454 17.948 12.8545 17.948Z" stroke="black" stroke-width="2" stroke-linecap="round" stroke-linejoin="round"/>
</g>
<defs>
<clipPath id="clip0_2344_2712">
<rect width="24" height="24" fill="white" transform="translate(0.854492 0.947998)"/>
</clipPath>
</defs>
</svg>
