<svg width="40" height="40" viewBox="0 0 40 40" fill="none" xmlns="http://www.w3.org/2000/svg">
<path d="M20 36.6666C29.2047 36.6666 36.6666 29.2047 36.6666 20C36.6666 10.7952 29.2047 3.33331 20 3.33331C10.7952 3.33331 3.33331 10.7952 3.33331 20C3.33331 29.2047 10.7952 36.6666 20 36.6666Z" stroke="#1E1E1E" stroke-width="3.5" stroke-linecap="round" stroke-linejoin="round"/>
<path d="M30.6666 33V30.3333C30.6666 28.9188 30.1047 27.5623 29.1045 26.5621C28.1044 25.5619 26.7478 25 25.3333 25H14.6666C13.2522 25 11.8956 25.5619 10.8954 26.5621C9.89522 27.5623 9.33331 28.9188 9.33331 30.3333V33M25.3333 14.3333C25.3333 17.2789 22.9455 19.6667 20 19.6667C17.0545 19.6667 14.6666 17.2789 14.6666 14.3333C14.6666 11.3878 17.0545 9 20 9C22.9455 9 25.3333 11.3878 25.3333 14.3333Z" stroke="#1E1E1E" stroke-width="3" stroke-linecap="round" stroke-linejoin="round"/>
</svg>
