<svg width="48" height="40" viewBox="0 0 48 40" fill="none" xmlns="http://www.w3.org/2000/svg">
<path d="M32.0402 14.8199L26.2802 10.7899C24.7102 9.68994 22.3002 9.74994 20.7902 10.9199L15.7802 14.8299C14.7802 15.6099 13.9902 17.2099 13.9902 18.4699V25.3699C13.9902 27.9199 16.0602 29.9999 18.6102 29.9999H29.3902C31.9402 29.9999 34.0102 27.9299 34.0102 25.3799V18.5999C34.0102 17.2499 33.1402 15.5899 32.0402 14.8199ZM24.7502 25.9999C24.7502 26.4099 24.4102 26.7499 24.0002 26.7499C23.5902 26.7499 23.2502 26.4099 23.2502 25.9999V22.9999C23.2502 22.5899 23.5902 22.2499 24.0002 22.2499C24.4102 22.2499 24.7502 22.5899 24.7502 22.9999V25.9999Z" fill="#1E1E1E"/>
</svg>
