<svg width="130" height="130" viewBox="0 0 130 130" fill="none" xmlns="http://www.w3.org/2000/svg">
<circle cx="65" cy="65" r="65" fill="#FFDFE6"/>
<mask id="mask0_1557_84" style="mask-type:alpha" maskUnits="userSpaceOnUse" x="0" y="0" width="130" height="130">
<circle cx="65" cy="65" r="65" fill="#FFEADF"/>
</mask>
<g mask="url(#mask0_1557_84)">
<path d="M26.8224 95.8155L22.7236 129.999H-2.61127L-1.77143 124.331C-1.46572 120.602 -0.531979 117.022 0.936756 113.684C3.42657 108.119 7.53973 103.589 12.5888 100.48V100.472C12.8474 100.306 13.1076 100.166 13.3662 100.008C17.4243 97.6694 22.017 96.2086 26.8224 95.8155Z" fill="#186BE7"/>
<path d="M131.118 130H105.712L101.346 93.531C104.23 93.7673 107.047 94.3874 109.708 95.36C117.396 98.1394 123.857 103.777 127.233 111.415C128.702 114.729 129.628 118.317 129.941 122.047L131.118 130Z" fill="#186BE7"/>
<path d="M114.103 97.6542L109.772 130H16.4672L12.589 100.48V100.472C12.8475 100.307 13.1078 100.166 13.3664 100.008C19.2203 96.5563 32.5102 92.5851 42.0039 90.0088C48.702 88.1924 55.6116 87.2919 62.5539 87.3233L69.9356 87.3582C75.0895 87.3814 80.2246 87.9216 85.2724 88.968C93.4406 90.6591 105.56 93.3738 109.706 95.3605C111.294 96.1056 112.762 96.8764 114.103 97.6542Z" fill="#0D6EFD"/>
<path d="M85.8329 55.8022C85.8329 55.8022 87.9253 61.5396 78.5696 64.8736L79.2203 111.765L51.4681 99.3257L53.9308 72.2199L64.5779 67.6442L67.1167 63.0581C67.1167 63.0581 70.8023 58.3029 71.2477 57.8347C71.6923 57.3661 75.6356 53.8972 75.6356 53.8972L84.11 56.4542L85.8329 55.8022Z" fill="#FAB9C9"/>
<path d="M73.791 69.6856C75.5318 62.7874 71.0339 63.0437 65.987 65.1042L64.5812 67.6438L54.7018 71.8893L53.6554 75.5666L52.6789 87.3051C52.6785 87.3051 70.2343 83.7851 73.791 69.6856Z" fill="#1B1E28"/>
<path d="M46.2444 51.9789C46.2444 51.9789 38.5452 48.4894 41.2495 40.5732C43.9533 32.6569 44.0206 32.6574 43.4594 28.9259C42.8973 25.1949 44.3324 15.9065 55.2302 18.509C66.1289 21.1119 67.6046 21.3931 73.1668 19.0702C78.7291 16.7472 86.4029 21.8159 85.2058 34.1348C84.1891 44.6055 81.9696 41.7096 84.0791 47.3172C86.1894 52.9244 84.9482 54.3259 81.2503 55.2099C72.6829 57.2573 68.5217 53.1747 68.5217 52.9821C68.5217 52.7895 66.832 48.4955 65.776 47.9326C64.72 47.3692 55.0752 44.6946 54.8647 44.9759C54.6533 45.2571 51.4699 49.6743 51.4699 49.6743L46.2444 51.9789Z" fill="#1B1E28"/>
<path d="M41.8457 53.1406C44.9749 53.3109 48.1482 53.1576 51.283 53.1288C51.528 53.1266 51.5289 52.7449 51.283 52.7471C48.1482 52.772 44.9727 52.6711 41.8457 52.8947C41.688 52.9052 41.6867 53.1332 41.8457 53.1406Z" fill="#1B1E28"/>
<path d="M46.2622 41.1728V65.3517C46.2622 65.3517 45.5066 76.8325 54.1251 77.2928C62.7436 77.7531 67.9403 77.326 70.7372 74.2663C73.5331 71.2069 76.1649 65.746 74.19 51.2391C72.2168 36.7312 70.1449 34.265 70.1449 34.265L59.3878 31.0078L49.2219 32.784L46.2622 41.1728Z" fill="#FAB9C9"/>
<path d="M46.2487 66.3757C46.3016 69.1983 47.089 76.9175 54.1252 77.2927C62.7437 77.753 67.9404 77.3259 70.7372 74.2661C72.8187 71.9886 74.8067 68.3772 74.8744 60.6968C74.8617 58.2 74.6543 55.2949 74.1905 51.8835C73.9201 49.8912 73.6795 48.0818 73.4646 46.4309C71.7408 36.1659 70.1455 34.2653 70.1455 34.2653L59.3883 31.0081L49.2224 32.7843L46.399 40.7861L46.2623 41.8173V42.0636C46.2623 42.0636 46.7802 40.7316 48.9272 40.8058C51.0742 40.8796 50.8514 39.8677 53.3679 37.0796C55.8852 34.2924 57.1186 37.8198 59.107 39.4729C61.0955 41.1259 63.9032 38.93 67.1595 38.8313C70.4171 38.7322 69.7747 42.6309 69.1589 43.6922C68.5413 44.753 67.974 46.258 69.9489 46.9738C71.9221 47.6887 72.6121 48.0093 72.8602 52.8448C73.1061 57.6807 71.7989 61.1108 69.3065 62.7381C66.8149 64.3671 61.5597 63.9968 57.9078 61.2091C54.2562 58.421 50.2955 61.0986 48.3848 61.9245C47.3755 62.3599 46.3963 61.7956 46.2627 61.7131V65.3511V65.9953C46.2623 65.9961 46.2535 66.1363 46.2487 66.3757Z" fill="#E5A0B1"/>
<path d="M53.7069 47.4354C53.3156 50.5397 52.8496 54.0449 53.261 57.1523C53.4121 58.2939 54.086 59.177 55.6272 58.8556C56.0211 58.773 55.8534 58.3018 55.4599 58.366C53.0382 58.7621 53.8715 53.7423 53.8947 52.861C53.944 51.0524 54.0314 49.2448 54.0117 47.4354C54.0095 47.2743 53.7257 47.2804 53.7069 47.4354Z" fill="#EAAABA"/>
<path d="M58.7604 55.5864C59.4563 55.5864 60.0204 55.0223 60.0204 54.3264C60.0204 53.6305 59.4563 53.0664 58.7604 53.0664C58.0645 53.0664 57.5004 53.6305 57.5004 54.3264C57.5004 55.0223 58.0645 55.5864 58.7604 55.5864Z" fill="#1B1E28"/>
<path d="M49.1938 55.5864C49.8897 55.5864 50.4538 55.0223 50.4538 54.3264C50.4538 53.6305 49.8897 53.0664 49.1938 53.0664C48.498 53.0664 47.9338 53.6305 47.9338 54.3264C47.9338 55.0223 48.498 55.5864 49.1938 55.5864Z" fill="#1B1E28"/>
<path d="M46.8729 49.9366C47.6123 49.6392 48.2251 49.2212 49.0431 49.1212C49.9471 49.0081 50.6717 49.2706 51.5084 49.5545C51.8556 49.6715 51.9919 49.1933 51.7403 49.0055C50.4022 48.0067 47.6145 48.1687 46.6354 49.627C46.5375 49.7711 46.7022 50.006 46.8729 49.9366Z" fill="#1B1E28"/>
<path d="M57.6623 49.5454C58.4384 49.2445 59.0502 48.9086 59.9193 48.9484C60.7884 48.989 61.4964 49.348 62.2973 49.6314C62.6463 49.7555 62.776 49.2715 62.5284 49.0824C61.2636 48.1164 58.4528 47.7312 57.4238 49.2357C57.3234 49.3803 57.4915 49.6113 57.6623 49.5454Z" fill="#1B1E28"/>
<path d="M65.2516 56.7332C65.6984 57.832 64.8498 59.2143 63.3553 59.8218C61.8608 60.4302 60.2881 60.0314 59.8418 58.933C59.395 57.8364 60.2445 56.4537 61.739 55.8453C63.2326 55.2391 64.8061 55.6357 65.2516 56.7332Z" fill="#EAAABA"/>
<path d="M48.2627 56.0873C47.5801 55.7811 46.8747 55.6881 46.2598 55.7794V59.9838C46.328 60.0196 46.397 60.0546 46.469 60.0869C47.971 60.7608 49.5917 60.4127 50.0865 59.3073C50.5817 58.2041 49.7646 56.7629 48.2627 56.0873Z" fill="#EAAABA"/>
<path d="M52.6872 52.2351C52.9467 54.9271 51.4701 57.5375 48.7514 58.2542C45.6864 59.0621 42.5686 56.9566 42.0951 53.8602C41.6514 50.9489 43.67 48.2224 46.5769 47.7774C49.5912 47.3179 52.0968 49.385 52.692 52.2749C52.7314 52.4622 53.0161 52.3823 52.9768 52.1967C52.3566 49.185 49.6764 46.9581 46.5127 47.4577C43.4626 47.9398 41.3247 50.8472 41.7724 53.9026C42.2192 56.9523 45.1623 59.111 48.2007 58.6651C51.3687 58.2009 53.2786 55.3058 52.9833 52.2342C52.965 52.0478 52.6693 52.0464 52.6872 52.2351Z" fill="#1B1E28"/>
<path d="M66.2629 53.1915C66.1061 56.1019 63.9233 58.5638 60.8906 58.5638C57.9785 58.5638 55.5175 56.1019 55.5175 53.1915C55.5175 50.4798 57.6413 48.1577 60.3163 47.8791C63.5599 47.5432 66.0934 50.0247 66.2629 53.1915C66.2729 53.3806 66.569 53.3819 66.559 53.1915C66.3926 50.1121 64.105 47.5231 60.8906 47.5231C57.8147 47.5231 55.207 50.1051 55.2218 53.1915C55.2362 56.1683 57.612 58.6865 60.5897 58.8424C63.9198 59.0175 66.3865 56.3888 66.559 53.1915C66.5695 53.0006 66.2733 53.0006 66.2629 53.1915Z" fill="#1B1E28"/>
<path d="M52.7278 52.8656C53.5406 53.0097 54.5158 53.0172 55.3338 52.9023C55.4483 52.8866 55.4483 52.6887 55.3338 52.6726C54.5158 52.5595 53.5424 52.5656 52.7278 52.7097C52.6492 52.7228 52.6492 52.8512 52.7278 52.8656Z" fill="#1B1E28"/>
<path d="M66.1718 52.9654C69.3014 53.1353 72.4747 52.982 75.6092 52.9536C75.8542 52.9514 75.855 52.5693 75.6092 52.5711C72.4743 52.5964 69.2988 52.4955 66.1718 52.7187C66.0141 52.73 66.0133 52.9567 66.1718 52.9654Z" fill="#1B1E28"/>
<path d="M85.8133 55.802C83.4737 49.8389 74.512 53.897 74.512 53.897L73.7845 59.7297L78.201 58.0434C78.3596 58.439 82.4771 58.5181 82.4771 58.5181L85.8133 55.802Z" fill="#FAB9C9"/>
<path d="M77.9908 54.1831C80.4474 53.8071 82.8197 55.9593 82.5407 58.4697C82.4979 58.8645 81.8738 58.8689 81.9161 58.4697C82.1454 56.4061 80.2509 54.4644 78.1563 54.7845C77.7632 54.8452 77.5942 54.2443 77.9908 54.1831Z" fill="#E6A0B1"/>
<path d="M81.391 56.0156C80.3617 56.4654 79.5913 57.2961 79.255 58.3731C79.1371 58.7565 78.5344 58.5927 78.6545 58.2075C79.0331 56.9873 79.9009 55.9898 81.0762 55.4767C81.4417 55.3177 81.7596 55.8549 81.391 56.0156Z" fill="#E6A0B1"/>
<path d="M49.8524 20.9148C46.2485 23.3509 45.5108 27.9833 47.1748 31.8297C47.2285 31.9546 47.4102 31.8462 47.3574 31.7231C45.7419 27.9908 46.4524 23.4671 49.959 21.0969C50.0717 21.0209 49.9651 20.8375 49.8524 20.9148Z" fill="white"/>
<path d="M43.5817 46.9296C43.8835 47.5388 44.16 48.1546 44.5321 48.725C44.6063 48.8385 44.7897 48.7329 44.7146 48.6184C44.3417 48.0476 44.0656 47.4318 43.7643 46.8235C43.704 46.7016 43.5215 46.8086 43.5817 46.9296Z" fill="white"/>
<path d="M70.2501 40.1889C70.2501 40.4239 70.2501 40.658 70.2501 40.8929C70.2501 41.0287 70.4615 41.0287 70.4615 40.8929C70.4615 40.658 70.4615 40.4239 70.4615 40.1889C70.4615 40.0531 70.2501 40.0531 70.2501 40.1889Z" fill="white"/>
<path d="M69.9785 43.2333C69.9147 43.3198 69.9016 43.4286 69.8379 43.515C69.7566 43.6247 69.9401 43.7295 70.0204 43.6216C70.0851 43.5351 70.0982 43.4264 70.1611 43.3399C70.2418 43.2303 70.0584 43.1246 69.9785 43.2333Z" fill="white"/>
<path d="M82.2103 42.7939C81.9614 45.1658 82.009 47.0643 82.9182 49.2982C82.9693 49.4227 83.1733 49.369 83.1222 49.2428C82.2282 47.0455 82.1771 45.1187 82.4217 42.7939C82.4365 42.6581 82.2243 42.6594 82.2103 42.7939Z" fill="white"/>
<path d="M54.1249 77.2929C62.7434 77.7532 67.94 77.3261 70.7369 74.2663C73.5328 71.207 76.1646 65.7461 74.1897 51.2391C72.2165 36.7313 71.8134 31.5651 71.8134 31.5651L64.3156 27.4991L47.9372 28.5028L46.2619 41.1724V41.4187C46.2619 41.4187 46.7799 40.0871 48.9269 40.1605C51.0738 40.2347 50.8511 39.2228 53.3676 36.4351C55.8849 33.6479 57.1182 37.1754 59.1067 38.8284C61.0951 40.481 63.9029 38.2856 67.1592 38.1869C70.4168 38.0877 69.7743 41.986 69.1585 43.0473C68.541 44.1086 67.9737 45.6131 69.9486 46.3289C71.9217 47.0443 72.6118 47.3644 72.8598 52.1999C73.1057 57.0359 71.7986 60.466 69.3061 62.0937C66.8146 63.7223 61.5594 63.3523 57.9074 60.5642C54.2559 57.7766 50.2951 60.4542 48.3844 61.28C47.3751 61.715 46.396 61.1508 46.2623 61.0687V65.3513C46.2619 65.3517 45.5064 76.8326 54.1249 77.2929Z" fill="#1B1E28"/>
<path d="M45.2528 33.9944C45.3297 36.2112 43.9775 38.011 43.1412 39.9719C42.5499 41.3577 42.4656 42.8601 42.5075 44.3423C42.511 44.4782 42.7224 44.479 42.7184 44.3423C42.6547 42.087 43.17 40.3253 44.1544 38.315C44.8641 36.8668 45.521 35.6448 45.4637 33.9944C45.4594 33.8585 45.248 33.8581 45.2528 33.9944Z" fill="white"/>
<path d="M70.1866 23.8184C72.6746 24.1988 75.2177 23.6734 77.6682 24.3692C82.4348 25.7208 81.3241 32.7981 79.8384 36.1238C79.7829 36.247 79.9655 36.354 80.0201 36.23C81.5041 32.9095 82.1024 28.5985 79.782 25.5038C77.7381 22.7786 73.0817 24.0486 70.2429 23.6149C70.1101 23.5944 70.0521 23.7979 70.1866 23.8184Z" fill="white"/>
<path d="M58.1379 34.9798C58.3511 41.3526 66.3402 34.2727 69.0812 37.4482C69.1698 37.5508 69.3192 37.4015 69.2305 37.2984C66.4311 34.0543 58.5493 40.9617 58.3497 34.9793C58.3454 34.8439 58.134 34.8435 58.1379 34.9798Z" fill="white"/>
<path d="M53.8103 77.4462C57.347 77.4693 60.9387 77.8982 64.4592 77.3829C68.2501 76.8278 70.8285 75.3538 72.803 72.0608C72.8729 71.9438 72.6903 71.8381 72.6205 71.9547C70.4538 75.566 67.4443 76.8981 63.3442 77.2925C60.1762 77.5969 56.9819 77.2553 53.8103 77.2348C53.675 77.2339 53.675 77.4453 53.8103 77.4462Z" fill="white"/>
<path d="M53.3028 63.7403C54.1898 65.7191 57.8527 64.9225 57.8562 62.7616C57.8562 62.531 57.5395 62.4454 57.4229 62.6445C57.0102 63.3481 56.7399 64.0093 55.8585 64.2364C54.9357 64.4749 54.2618 63.9866 53.553 63.4892C53.3862 63.3726 53.2364 63.5918 53.3028 63.7403Z" fill="white"/>
<path d="M52.1917 93.0598C59.8695 102.051 68.2443 100.878 77.0746 93.0598L77.0755 129.999H52.1922V93.0598H52.1917Z" fill="#E3EEF1"/>
<path d="M52.8653 83.7289L35.4169 89.7174C43.4554 103.511 47.7088 116.898 47.6721 129.827H55.4709C59.4665 115.877 58.1 100.367 52.8653 83.7289Z" fill="#186BE7"/>
<path d="M78.6339 83.7289L96.0827 89.7174C88.0433 103.511 83.7904 116.898 83.8266 129.827H76.0279C72.0335 115.877 73.3996 100.367 78.6339 83.7289Z" fill="#186BE7"/>
</g>
</svg>
