<svg width="86" height="14" viewBox="0 0 86 14" fill="none" xmlns="http://www.w3.org/2000/svg">
<path d="M32 5.06953L27.1615 4.37773L24.9884 0L22.8354 4.38791L18 5.10203L21.508 8.50547L20.693 13.3246L25.014 11.0403L29.3455 13.3047L28.5079 8.48922L32 5.06953Z" fill="#FFCA28"/>
<path d="M26.9473 4.60384L31.3072 5.22694L28.1606 8.30855L28.9153 12.6477L25.0121 10.6071L21.1186 12.6657L21.8529 8.32324L18.692 5.2563L23.049 4.61285L24.989 0.658936L26.9473 4.60384Z" fill="#FFCA28"/>
<path d="M28.3996 8.07443L31.3072 5.22694L26.9473 4.60384L24.989 0.658936L23.049 4.61285L18.692 5.2563L21.5967 8.07443H28.3996Z" fill="#FFD54F"/>
<path d="M32 5.06953L27.1615 4.37773L24.9884 0L22.8354 4.38791L18 5.10203L21.508 8.50547L20.693 13.3246L25.014 11.0403L29.3455 13.3047L28.5079 8.48922L32 5.06953Z" fill="#FFCA28"/>
<path d="M26.9473 4.60384L31.3072 5.22694L28.1606 8.30855L28.9153 12.6477L25.0121 10.6071L21.1186 12.6657L21.8529 8.32324L18.692 5.2563L23.049 4.61285L24.989 0.658936L26.9473 4.60384Z" fill="#FFCA28"/>
<path d="M28.3996 8.07443L31.3072 5.22694L26.9473 4.60384L24.989 0.658936L23.049 4.61285L18.692 5.2563L21.5967 8.07443H28.3996Z" fill="#FFD54F"/>
<path d="M50 5.06953L45.1615 4.37773L42.9884 0L40.8354 4.38791L36 5.10203L39.508 8.50547L38.693 13.3246L43.014 11.0403L47.3455 13.3047L46.5079 8.48922L50 5.06953Z" fill="#FFCA28"/>
<path d="M44.9473 4.60384L49.3072 5.22694L46.1606 8.30855L46.9153 12.6477L43.0121 10.6071L39.1186 12.6657L39.8529 8.32324L36.692 5.2563L41.049 4.61285L42.989 0.658936L44.9473 4.60384Z" fill="#FFCA28"/>
<path d="M46.3996 8.07443L49.3072 5.22694L44.9473 4.60384L42.989 0.658936L41.049 4.61285L36.692 5.2563L39.5967 8.07443H46.3996Z" fill="#FFD54F"/>
<path d="M68 5.06953L63.1615 4.37773L60.9884 0L58.8354 4.38791L54 5.10203L57.508 8.50547L56.693 13.3246L61.014 11.0403L65.3455 13.3047L64.5079 8.48922L68 5.06953Z" fill="#FFCA28"/>
<path d="M62.9473 4.60384L67.3072 5.22694L64.1606 8.30855L64.9153 12.6477L61.0121 10.6071L57.1186 12.6657L57.8529 8.32324L54.692 5.2563L59.049 4.61285L60.989 0.658936L62.9473 4.60384Z" fill="#FFCA28"/>
<path d="M64.3996 8.07443L67.3072 5.22694L62.9473 4.60384L60.989 0.658936L59.049 4.61285L54.692 5.2563L57.5967 8.07443H64.3996Z" fill="#FFD54F"/>
<path d="M14 5.06953L9.16146 4.37773L6.98835 0L4.83541 4.38791L0 5.10203L3.50797 8.50547L2.69304 13.3246L7.01399 11.0403L11.3455 13.3047L10.5079 8.48922L14 5.06953Z" fill="#FFCA28"/>
<path d="M8.94731 4.60384L13.3072 5.22694L10.1606 8.30855L10.9153 12.6477L7.01205 10.6071L3.11863 12.6657L3.85292 8.32324L0.692017 5.2563L5.049 4.61285L6.98895 0.658936L8.94731 4.60384Z" fill="#FFCA28"/>
<path d="M10.3996 8.07443L13.3072 5.22694L8.94731 4.60384L6.98895 0.658936L5.049 4.61285L0.692017 5.2563L3.59667 8.07443H10.3996Z" fill="#FFD54F"/>
<path d="M86 5.06953L81.1615 4.37773L78.9884 0L76.8354 4.38791L72 5.10203L75.508 8.50547L74.693 13.3246L79.014 11.0403L83.3455 13.3047L82.5079 8.48922L86 5.06953Z" fill="#FFCA28"/>
<path d="M80.9473 4.60384L85.3072 5.22694L82.1606 8.30855L82.9153 12.6477L79.0121 10.6071L75.1186 12.6657L75.8529 8.32324L72.692 5.2563L77.049 4.61285L78.989 0.658936L80.9473 4.60384Z" fill="#FFCA28"/>
<path d="M82.3996 8.07443L85.3072 5.22694L80.9473 4.60384L78.989 0.658936L77.049 4.61285L72.692 5.2563L75.5967 8.07443H82.3996Z" fill="#FFD54F"/>
</svg>
